<?xml version="1.0" encoding="utf-8"?>
<!-- Generator: Adobe Illustrator 16.0.0, SVG Export Plug-In . SVG Version: 6.00 Build 0)  -->
<!DOCTYPE svg PUBLIC "-//W3C//DTD SVG 1.1//EN" "http://www.w3.org/Graphics/SVG/1.1/DTD/svg11.dtd">
<svg version="1.1" id="Layer_1" xmlns="http://www.w3.org/2000/svg" xmlns:xlink="http://www.w3.org/1999/xlink" x="0px" y="0px"
	 width="183px" height="181px" viewBox="0 0 183 181" enable-background="new 0 0 183 181" xml:space="preserve">
<path fill="#231F20" d="M171.82,83.342c-0.717-0.364-1.342-1.224-1.666-1.999c-1.726-4.127-2.52-8.489-2.566-12.932
	c-0.012-1.116,0.865-2.356,1.597-3.345c2.473-3.343,2.4-7.464-0.579-10.006c-1.127-0.961-2.713-1.664-4.179-1.878
	c-2.153-0.314-3.872-1.085-5.09-2.849c-1.877-2.718-3.732-5.454-5.523-8.231c-0.951-1.477-1.119-3.039-0.513-4.803
	c0.981-2.849,0.583-5.583-1.623-7.791c-2.156-2.158-4.812-2.544-7.635-1.646c-1.67,0.531-3.265,0.47-4.689-0.438
	c-3.161-2.015-6.248-4.144-9.352-6.246c-1.33-0.9-1.718-2.278-1.819-3.789c-0.161-2.43-1.131-4.477-3.163-5.852
	c-2.573-1.742-5.522-1.991-7.86-0.062c-2.659,2.194-5.387,2.514-8.466,1.847c-2.895-0.627-5.787-1.289-8.635-2.095
	c-0.781-0.221-1.695-0.869-2.041-1.571c-1.243-2.527-3.042-4.373-5.643-5.443c-1.124,0-2.247,0-3.371,0
	c-2.482,1.015-4.305,2.708-5.452,5.156c-0.224,0.479-0.665,0.985-1.133,1.2c-4.428,2.027-9.063,3.221-13.958,2.817
	c-1.139-0.094-2.345-0.752-3.301-1.45c-5-3.65-11.122-1.087-11.87,5.094c-0.231,1.909-0.938,3.484-2.485,4.566
	c-2.888,2.019-5.823,3.974-8.777,5.896c-1.387,0.903-2.843,0.914-4.483,0.418c-6.322-1.912-11.038,2.575-9.566,9.007
	c0.518,2.263,0.035,4.38-1.103,6.301c-1.312,2.213-2.748,4.363-4.261,6.444c-1.434,1.974-3.347,3.177-5.888,3.467
	c-5.1,0.585-8.272,6.506-5.185,10.578c2.935,3.871,2.204,7.603,1.472,11.609c-0.221,1.208-0.607,2.386-0.853,3.592
	c-0.482,2.365-1.479,4.242-3.895,5.247c-2.026,0.843-2.925,2.811-3.862,4.658c0,1.123,0,2.247,0,3.37
	c1.017,2.484,2.732,4.266,5.149,5.476c0.679,0.34,1.274,1.142,1.587,1.869c1.818,4.219,2.604,8.689,2.663,13.249
	c0.013,1.014-0.824,2.14-1.5,3.042c-1.971,2.631-2.417,5.333-0.875,8.32c1.148,2.229,2.926,3.575,5.403,3.729
	c2.383,0.149,4.164,1.167,5.466,3.096c1.756,2.601,3.506,5.203,5.208,7.839c0.991,1.534,1.19,3.13,0.562,4.955
	c-0.98,2.854-0.546,5.582,1.664,7.781c2.108,2.098,4.688,2.523,7.472,1.64c1.641-0.521,3.247-0.577,4.7,0.354
	c3.202,2.054,6.347,4.195,9.505,6.314c1.408,0.945,1.635,2.44,1.832,3.969c0.831,6.426,6.926,9.052,11.99,5.054
	c1.654-1.306,3.338-1.841,5.285-1.464c3.566,0.688,7.123,1.449,10.645,2.336c0.829,0.209,1.82,0.877,2.19,1.61
	c1.269,2.51,3.037,4.38,5.652,5.433c1.124,0,2.248,0,3.371,0c2.5-0.999,4.243-2.75,5.474-5.148c0.367-0.715,1.238-1.316,2.016-1.65
	c4.117-1.769,8.483-2.529,12.924-2.582c1.118-0.013,2.364,0.855,3.35,1.589c3.319,2.473,7.462,2.397,10.006-0.567
	c0.933-1.087,1.667-2.604,1.857-4.012c0.317-2.346,1.221-4.167,3.14-5.476c2.638-1.798,5.284-3.585,7.973-5.305
	c1.481-0.947,3.044-1.041,4.814-0.535c6.469,1.845,11.11-2.733,9.398-9.249c-0.458-1.748-0.433-3.365,0.511-4.846
	c1.924-3.021,3.944-5.982,5.954-8.949c0.991-1.464,2.49-1.903,4.183-2.116c6.514-0.819,9.057-6.916,5.02-12.106
	c-1.114-1.434-1.723-2.904-1.387-4.656c0.728-3.785,1.477-7.567,2.365-11.316c0.183-0.772,0.868-1.682,1.569-2.027
	c2.527-1.245,4.377-3.039,5.434-5.648c0-1.123,0-2.247,0-3.37C175.972,86.317,174.228,84.564,171.82,83.342z"/>
</svg>
