<?xml version="1.0" encoding="utf-8"?>
<!-- Generator: Adobe Illustrator 16.0.0, SVG Export Plug-In . SVG Version: 6.00 Build 0)  -->
<!DOCTYPE svg PUBLIC "-//W3C//DTD SVG 1.1//EN" "http://www.w3.org/Graphics/SVG/1.1/DTD/svg11.dtd">
<svg version="1.1" id="Layer_1" xmlns="http://www.w3.org/2000/svg" xmlns:xlink="http://www.w3.org/1999/xlink" x="0px" y="0px"
	 width="64px" height="64px" viewBox="0 0 64 64" enable-background="new 0 0 64 64" xml:space="preserve">
<path fill="#231F20" d="M61.804,29.372c-0.263-0.134-0.492-0.449-0.612-0.734c-0.633-1.515-0.924-3.117-0.94-4.748
	c-0.005-0.41,0.316-0.865,0.585-1.228c0.909-1.228,0.882-2.74-0.212-3.674c-0.414-0.353-0.996-0.611-1.534-0.69
	c-0.791-0.115-1.423-0.398-1.869-1.046c-0.689-0.998-1.371-2.002-2.028-3.022c-0.349-0.542-0.411-1.116-0.188-1.764
	c0.36-1.046,0.214-2.05-0.597-2.86C53.617,8.813,52.642,8.671,51.604,9c-0.612,0.195-1.197,0.173-1.722-0.16
	c-1.16-0.74-2.293-1.521-3.434-2.293c-0.487-0.331-0.631-0.836-0.668-1.392c-0.059-0.893-0.415-1.643-1.161-2.148
	c-0.944-0.639-2.027-0.73-2.886-0.022c-0.976,0.806-1.978,0.923-3.108,0.678c-1.062-0.23-2.124-0.473-3.172-0.769
	c-0.286-0.081-0.621-0.319-0.748-0.577c-0.457-0.928-1.117-1.605-2.072-1.998c-0.413,0-0.825,0-1.238,0
	c-0.912,0.373-1.581,0.994-2.001,1.893c-0.083,0.176-0.245,0.362-0.417,0.44c-1.625,0.744-3.328,1.183-5.125,1.035
	c-0.418-0.035-0.86-0.276-1.211-0.533c-1.836-1.34-4.083-0.399-4.359,1.87c-0.085,0.701-0.345,1.279-0.913,1.677
	c-1.061,0.742-2.138,1.458-3.223,2.165c-0.509,0.332-1.044,0.335-1.646,0.153c-2.321-0.702-4.053,0.945-3.512,3.308
	c0.19,0.831,0.013,1.608-0.405,2.313c-0.482,0.812-1.009,1.602-1.564,2.366c-0.526,0.725-1.229,1.167-2.162,1.272
	c-1.873,0.215-3.037,2.389-1.904,3.885c1.077,1.421,0.809,2.791,0.541,4.263c-0.081,0.443-0.223,0.875-0.313,1.318
	c-0.177,0.869-0.542,1.558-1.43,1.927c-0.744,0.309-1.074,1.032-1.418,1.71c0,0.413,0,0.825,0,1.237
	c0.373,0.912,1.003,1.566,1.891,2.01c0.249,0.125,0.467,0.42,0.582,0.686c0.667,1.55,0.957,3.191,0.978,4.865
	c0.005,0.372-0.303,0.786-0.551,1.118c-0.724,0.966-0.888,1.958-0.322,3.054c0.422,0.818,1.075,1.313,1.984,1.369
	c0.875,0.055,1.529,0.429,2.007,1.137c0.645,0.955,1.288,1.911,1.913,2.879c0.364,0.563,0.437,1.148,0.206,1.818
	c-0.36,1.049-0.2,2.051,0.611,2.857c0.774,0.771,1.721,0.927,2.743,0.603c0.603-0.192,1.192-0.212,1.726,0.131
	c1.175,0.753,2.33,1.539,3.49,2.317c0.516,0.347,0.6,0.896,0.672,1.457c0.305,2.359,2.543,3.323,4.402,1.855
	c0.607-0.479,1.226-0.675,1.94-0.537c1.31,0.253,2.616,0.532,3.909,0.857c0.305,0.077,0.668,0.322,0.805,0.591
	c0.466,0.922,1.115,1.609,2.075,1.995c0.413,0,0.825,0,1.238,0c0.918-0.367,1.558-1.01,2.01-1.89
	c0.135-0.264,0.454-0.483,0.739-0.606c1.512-0.65,3.114-0.929,4.745-0.947c0.411-0.005,0.869,0.312,1.23,0.582
	c1.22,0.909,2.74,0.881,3.674-0.208c0.343-0.398,0.612-0.956,0.682-1.473c0.117-0.861,0.448-1.53,1.154-2.01
	c0.967-0.661,1.939-1.317,2.927-1.949c0.544-0.348,1.118-0.381,1.768-0.196c2.376,0.678,4.079-1.003,3.451-3.395
	c-0.168-0.643-0.159-1.237,0.188-1.78c0.706-1.109,1.448-2.196,2.186-3.285c0.364-0.538,0.914-0.698,1.537-0.777
	c2.391-0.301,3.324-2.539,1.842-4.446c-0.409-0.525-0.633-1.064-0.508-1.709c0.266-1.39,0.541-2.778,0.867-4.155
	c0.066-0.284,0.319-0.617,0.576-0.743c0.929-0.459,1.606-1.116,1.995-2.075c0-0.413,0-0.825,0-1.237
	C63.328,30.464,62.688,29.821,61.804,29.372z"/>
</svg>
